<?xml version="1.0" standalone="no"?>
<!DOCTYPE svg PUBLIC "-//W3C//DTD SVG 20010904//EN"
 "http://www.w3.org/TR/2001/REC-SVG-20010904/DTD/svg10.dtd">
<svg version="1.0" xmlns="http://www.w3.org/2000/svg"
 width="400.000000pt" height="400.000000pt" viewBox="0 0 96.000000 96.000000"
 preserveAspectRatio="xMidYMid meet">

<g transform="translate(0.000000,96.000000) scale(0.100000,-0.100000)"
fill="#000000" stroke="none">
<path d="M707 950 c-43 -13 -96 -58 -114 -96 -17 -35 -27 -41 -38 -24 -4 6
-87 10 -216 10 -196 0 -210 -1 -229 -20 -11 -11 -20 -31 -20 -45 0 -20 -5 -25
-25 -25 -14 0 -34 -9 -45 -20 -19 -19 -20 -33 -20 -355 0 -322 1 -336 20 -355
19 -19 33 -20 370 -20 337 0 351 1 370 20 11 11 20 31 20 45 0 20 5 25 25 25
14 0 34 9 45 20 19 19 20 33 20 254 l0 233 35 37 c64 68 70 169 15 245 -16 22
-43 47 -60 56 -38 20 -115 27 -153 15z m114 -88 c32 -29 41 -65 26 -107 -5
-16 0 -25 23 -38 40 -24 38 -50 -7 -84 -31 -24 -46 -28 -98 -28 -52 0 -67 4
-98 28 -45 34 -47 60 -7 84 20 11 28 23 24 33 -20 52 -16 70 19 105 43 43 76
45 118 7z m-281 -97 c0 -43 -1 -45 -29 -45 -35 0 -37 3 -46 53 l-7 37 41 0 41
0 0 -45z m-135 6 c7 -12 -12 -24 -25 -16 -11 7 -4 25 10 25 5 0 11 -4 15 -9z
m185 -91 c0 -5 14 -25 30 -44 42 -47 106 -70 170 -63 l50 6 -2 -227 -3 -227
-355 0 -355 0 -3 30 c-2 17 -9 36 -14 43 -8 9 -8 16 0 24 15 15 15 51 0 66 -9
9 -9 15 0 24 8 8 12 66 12 195 l0 183 235 0 c144 0 235 -4 235 -10z"/>
<path d="M302 558 c-16 -16 -16 -80 0 -96 17 -17 339 -17 356 0 7 7 12 28 12
48 0 20 -5 41 -12 48 -17 17 -339 17 -356 0z m342 -33 c3 -8 3 -22 0 -30 -9
-22 -319 -22 -328 0 -3 8 -3 22 0 30 9 22 319 22 328 0z"/>
<path d="M302 408 c-16 -16 -16 -110 0 -126 17 -17 339 -17 356 0 7 7 12 35
12 63 0 28 -5 56 -12 63 -17 17 -339 17 -356 0z m73 -57 c7 -12 -12 -24 -25
-16 -11 7 -4 25 10 25 5 0 11 -4 15 -9z m60 0 c7 -12 -12 -24 -25 -16 -11 7
-4 25 10 25 5 0 11 -4 15 -9z m60 0 c7 -12 -12 -24 -25 -16 -11 7 -4 25 10 25
5 0 11 -4 15 -9z m60 0 c7 -12 -12 -24 -25 -16 -11 7 -4 25 10 25 5 0 11 -4
15 -9z m60 0 c7 -12 -12 -24 -25 -16 -11 7 -4 25 10 25 5 0 11 -4 15 -9z"/>
<path d="M376 224 c-9 -8 -16 -22 -16 -29 0 -34 30 -45 120 -45 90 0 120 11
120 45 0 34 -30 45 -120 45 -67 0 -92 -4 -104 -16z m189 -29 c0 -11 -138 -20
-162 -11 -8 3 -11 11 -8 16 9 14 170 9 170 -5z"/>
</g>
</svg>
