<?xml version="1.0" encoding="UTF-8"?>
<svg id="a" data-name="Capa 1" xmlns="http://www.w3.org/2000/svg" viewBox="0 0 283.46 113.39">
  <defs>
    <style>
      .b {
        fill: #662483;
      }

      .c {
        fill: #1d1d1b;
      }
    </style>
  </defs>
  <g>
    <path class="b" d="m84.2,19.3l-59.45,15.57c-4.74,1.24-8.04,5.52-8.04,10.42h0s7.12-1.86,7.12-1.86v39.65l9.01-2.36v-39.65l59.41-15.56h0c0-4.2-3.98-7.27-8.04-6.21Z"/>
    <path class="b" d="m67.45,44.31h0v27.33l15.78-4.13v4.27l-66.53,17.42h0c0,4.2,3.98,7.27,8.04,6.21l59.45-15.57c4.74-1.24,8.04-5.52,8.04-10.42h0s-.04.01-.04.01c.03-.33.04-.67.04-1.01v-12.9c0-4.71-4.45-8.15-9.01-6.95h0v10.62l-6.77,1.77v-19.02l7.74-2.03c4.74-1.24,8.04-5.52,8.04-10.42h0s-16.75,4.39-16.75,4.39c-4.74,1.24-8.04,5.52-8.04,10.42Z"/>
    <path class="b" d="m62.32,72.99v-9.51s0-8.31,0-8.31v-17.82l-16.75,4.39c-4.51,1.18-7.72,5.12-8.02,9.72h-.02v.7h0v27.33l9.01-2.36v-9.51l6.77-1.77v9.51l9.01-2.36Zm-15.78-13.69v-9.51l6.77-1.77v9.51l-6.77,1.77Z"/>
  </g>
  <g>
    <path class="c" d="m114.19,71.18v-29.38h-5.33v-2.42h14.15v2.42h-5.43v29.38h-3.39Z"/>
    <path class="c" d="m131.3,71.56c-.83,0-1.66-.12-2.5-.35-.84-.23-1.56-.77-2.15-1.61-.59-.84-.89-2.16-.89-3.96v-2.58c0-1.79.55-3.24,1.64-4.33s2.59-2.07,4.49-2.93c1.22-.61,2.21-1.15,2.99-1.61.77-.47,1.35-.99,1.75-1.56.39-.57.59-1.35.59-2.31v-1.13c0-.86-.18-1.52-.54-1.99-.36-.47-.83-.79-1.43-.97-.59-.18-1.21-.27-1.86-.27-1.61,0-2.67.44-3.17,1.32-.5.88-.75,2.18-.75,3.9v2.26h-3.07v-2.58c0-1.33.18-2.5.54-3.52.36-1.02,1.04-1.83,2.04-2.42,1-.59,2.48-.89,4.41-.89,2.04,0,3.58.23,4.6.7,1.02.47,1.7,1.13,2.04,1.99.34.86.51,1.88.51,3.07v21.42h-3.28l-.05-3.34c-.43,1.22-1.2,2.14-2.31,2.77-1.11.63-2.31.94-3.6.94Zm1.24-2.26c1.61,0,2.79-.57,3.52-1.72.73-1.15,1.1-2.67,1.1-4.57v-8.5c-.36.57-.95,1.09-1.78,1.56-.83.47-1.67.93-2.53,1.4-1.22.72-2.16,1.46-2.83,2.23-.66.77-1,1.84-1,3.2v2.1c0,1.29.18,2.24.54,2.85.36.61.81,1,1.35,1.18.54.18,1.08.27,1.61.27Z"/>
    <path class="c" d="m145.77,71.18v-26.63h2.8l.38,2.85c.39-1,1.04-1.72,1.94-2.15.9-.43,1.79-.7,2.69-.81,1-.21,1.97-.23,2.91-.05v2.64c-.14-.04-.4-.07-.75-.11-.36-.04-.75-.05-1.16-.05s-.8.07-1.16.21c-1.22.14-2.24.58-3.07,1.32-.83.74-1.24,1.73-1.24,2.99v19.8h-3.34Z"/>
    <path class="c" d="m155.14,77.16c-.18,0-.44-.02-.78-.05-.34-.04-.57-.07-.67-.11v-1.83c.14,0,.38,0,.7.03.32.02.61,0,.86-.03,1.29,0,2.3-.24,3.04-.73.73-.48,1.1-1.39,1.1-2.72v-27.17h3.28v26.47c0,1.79-.35,3.14-1.05,4.04-.7.9-1.61,1.48-2.74,1.75-1.13.27-2.38.39-3.74.35Zm5.87-35.89c-.54,0-1-.19-1.37-.56-.38-.38-.57-.82-.57-1.32,0-.54.19-.98.57-1.32.38-.34.83-.51,1.37-.51.5,0,.95.17,1.34.51.39.34.59.78.59,1.32,0,.5-.2.94-.59,1.32-.4.38-.84.56-1.34.56Z"/>
    <path class="c" d="m175.21,71.67c-1.79,0-3.25-.21-4.36-.62-1.11-.41-1.92-1.17-2.42-2.29-.5-1.11-.75-2.73-.75-4.84v-13.29c0-2.51.57-4.23,1.7-5.17,1.13-.93,3-1.4,5.62-1.4s4.39.47,5.52,1.4c1.13.93,1.69,2.66,1.69,5.17v6.89h-11.19v7.53c0,1.72.27,2.92.81,3.58.54.66,1.63,1,3.28,1,1.51,0,2.51-.32,3.01-.97.5-.65.75-1.85.75-3.61v-3.44h3.34v2.26c0,2.08-.25,3.69-.75,4.82-.5,1.13-1.26,1.91-2.29,2.34s-2.34.65-3.96.65Zm-4.2-15.87h7.86v-5.27c0-1.51-.25-2.6-.75-3.28-.5-.68-1.54-1.02-3.12-1.02s-2.64.34-3.17,1.02-.81,1.78-.81,3.28v5.27Z"/>
    <path class="b" d="m189.57,71.18v-27.39h-4.95v-4.41h16.14v4.41h-4.95v27.39h-6.24Z"/>
    <path class="b" d="m200.6,71.18l5.7-31.8h8.93l5.6,31.8h-7l-.97-5.87h-4.63l-.91,5.87h-6.73Zm7.75-8.99h4.47l-2.21-17.27-2.26,17.27Z"/>
    <path class="b" d="m230.2,71.77c-1.22,0-2.36-.2-3.42-.59-1.06-.39-1.93-1.17-2.61-2.34-.68-1.17-1.02-2.91-1.02-5.25v-17.43c0-1.87.37-3.32,1.1-4.36.73-1.04,1.77-1.77,3.09-2.18,1.33-.41,2.87-.62,4.63-.62s3.31.21,4.65.62c1.34.41,2.4,1.14,3.17,2.18.77,1.04,1.16,2.49,1.16,4.36v4.47h-6.08v-4.79c0-.86-.12-1.51-.35-1.96-.23-.45-.55-.74-.94-.89-.4-.14-.88-.22-1.45-.22-.54,0-1.01.07-1.43.22-.41.14-.74.44-.97.89-.23.45-.35,1.1-.35,1.96v19.26c0,.83.12,1.46.35,1.91.23.45.56.75.97.92.41.16.89.24,1.43.24.83,0,1.49-.25,1.99-.75s.75-1.27.75-2.31v-6.35h-2.58v-3.55h8.66v15.98h-4.68l-.32-2.47c-.07.11-.14.21-.21.32-.07.11-.13.2-.16.27-.36.61-.96,1.17-1.8,1.69-.84.52-2.04.78-3.58.78Z"/>
    <path class="c" d="m244.19,71.3c-.18,0-.34-.06-.46-.19s-.19-.27-.19-.45.06-.32.19-.45c.13-.12.28-.19.46-.19s.34.06.47.19c.13.13.2.28.2.45s-.07.32-.2.45-.29.19-.47.19Z"/>
    <path class="c" d="m248.81,71.34c-.56,0-1.02-.07-1.37-.2-.35-.13-.61-.37-.77-.72-.16-.35-.24-.86-.24-1.54v-4.19c0-.84.18-1.41.54-1.71.36-.3.96-.46,1.79-.46s1.4.15,1.76.45c.36.3.54.85.54,1.65v1.12h-1.06v-1.15c0-.49-.08-.85-.24-1.07-.16-.22-.49-.33-1-.33s-.84.11-1.01.33c-.17.22-.26.58-.26,1.07v4.57c0,.55.09.94.26,1.16.17.22.52.33,1.05.33.48,0,.8-.11.96-.33s.24-.61.24-1.17v-1.15h1.06v.88c0,.65-.08,1.16-.24,1.51-.16.36-.41.6-.74.74-.33.14-.76.21-1.27.21Z"/>
    <path class="c" d="m254.72,71.3c-.53,0-.96-.07-1.31-.21-.35-.14-.61-.4-.77-.76s-.25-.87-.25-1.51v-3.97c0-.82.18-1.41.54-1.77.36-.35.96-.53,1.79-.53s1.43.17,1.79.51.54.94.54,1.79v3.97c0,.64-.08,1.14-.24,1.5s-.41.62-.76.76-.79.22-1.34.22Zm0-.67c.46,0,.78-.12.98-.34.19-.23.29-.65.29-1.25v-4.24c0-.56-.09-.96-.28-1.21-.18-.25-.51-.37-1-.37-.45,0-.77.12-.97.35s-.3.64-.3,1.23v4.24c0,.6.1,1.01.3,1.25s.52.35.97.35Z"/>
    <path class="c" d="m258.65,71.18v-8.5h.89l.12.95c.13-.33.33-.6.63-.79.29-.2.65-.29,1.07-.29.66,0,1.13.14,1.4.41.27.27.41.68.42,1.2l-.19.02c.12-.49.33-.89.66-1.18.33-.3.75-.45,1.26-.45.71,0,1.19.17,1.45.5s.39.84.39,1.53v6.61h-1.07v-6.42c0-.55-.08-.92-.25-1.12-.17-.2-.45-.3-.85-.3-.38,0-.69.11-.94.33-.25.22-.39.5-.41.83v6.68h-1.07v-6.56c0-.47-.08-.8-.25-1-.17-.2-.46-.29-.88-.29-.39,0-.68.09-.88.27-.2.18-.35.4-.44.65v6.92h-1.07Z"/>
  </g>
</svg>